<svg xmlns="http://www.w3.org/2000/svg" viewBox="0 0 100 100">
  <!-- Droplet Shape -->
  <path d="M50,5 C50,5 15,45 15,70 A35,35 0 0,0 85,70 C85,45 50,5 50,5 Z" fill="#002060" />
  
  <!-- Waves at the bottom -->
  <path d="M15,75 Q35,65 50,75 T85,75 L85,70 Q65,60 50,70 T15,70 Z" fill="#00D2D2" opacity="0.8" />
  <path d="M15,85 Q35,75 50,85 T85,85 L85,80 Q65,70 50,80 T15,80 Z" fill="#00A0A0" opacity="0.6" />
  
  <!-- Simplified Wrench -->
  <g fill="white" transform="translate(35, 30) rotate(-15)">
    <rect x="0" y="5" width="35" height="10" rx="2" />
    <path d="M35,0 L50,0 L50,20 L35,20 L35,15 L42,10 L35,5 Z" />
  </g>
</svg>